<svg width="80" height="80" viewBox="0 0 80 80" fill="none" xmlns="http://www.w3.org/2000/svg">
<g clip-path="url(#clip0_10_765)">
<path d="M13.5 59L26 47.5L40 62.5L66.5 37" stroke="#ED1C24" stroke-width="2" stroke-linecap="round" stroke-linejoin="round"/>
<path d="M76 1H4C2.34315 1 1 2.34315 1 4V76C1 77.6569 2.34315 79 4 79H76C77.6569 79 79 77.6569 79 76V4C79 2.34315 77.6569 1 76 1Z" stroke="#ED1C24" stroke-width="2"/>
<path opacity="0.4" d="M41.5023 25C41.5023 25.8297 40.8296 26.5024 39.9999 26.5024C39.1701 26.5024 38.4974 25.8297 38.4974 25C38.4974 24.1702 39.1701 23.4975 39.9999 23.4975C40.8296 23.4975 41.5023 24.1702 41.5023 25Z" fill="#ED1C24"/>
<path opacity="0.4" d="M41.5023 14.5024C41.5023 15.3322 40.8296 16.0049 39.9999 16.0049C39.1701 16.0049 38.4974 15.3322 38.4974 14.5024C38.4974 13.6727 39.1701 13 39.9999 13C40.8296 13 41.5023 13.6727 41.5023 14.5024Z" fill="#ED1C24"/>
<path d="M41.5023 19.7512C41.5023 20.5809 40.8296 21.2536 39.9999 21.2536C39.1701 21.2536 38.4974 20.5809 38.4974 19.7512C38.4974 18.9214 39.1701 18.2487 39.9999 18.2487C40.8296 18.2487 41.5023 18.9214 41.5023 19.7512Z" fill="#ED1C24"/>
<path d="M36.0522 15.1576C36.4671 15.8762 36.221 16.7951 35.5023 17.21C34.7837 17.6248 33.8648 17.3787 33.4499 16.6601C33.0351 15.9415 33.2813 15.0226 33.9998 14.6077C34.7185 14.1928 35.6374 14.439 36.0522 15.1576Z" fill="#ED1C24"/>
<path d="M31.6601 18.4501C32.3787 18.8649 32.6248 19.7838 32.21 20.5024C31.7951 21.221 30.8762 21.4672 30.1576 21.0524C29.439 20.6375 29.1928 19.7186 29.6077 19C30.0226 18.2814 30.9414 18.0352 31.6601 18.4501Z" fill="#ED1C24"/>
<path d="M29.5024 23.4975C30.3321 23.4975 31.0048 24.1702 31.0048 25C31.0048 25.8297 30.3321 26.5024 29.5024 26.5024C28.6726 26.5024 28 25.8297 28 25C28 24.1702 28.6726 23.4975 29.5024 23.4975Z" fill="#ED1C24"/>
<path d="M30.1576 28.9476C30.8762 28.5327 31.7951 28.7789 32.21 29.4975C32.6249 30.2161 32.3786 31.135 31.66 31.5499C30.9414 31.9648 30.0225 31.7185 29.6077 31C29.1928 30.2814 29.439 29.3625 30.1576 28.9476Z" fill="#ED1C24"/>
<path d="M33.4502 33.3399C33.8651 32.6212 34.784 32.3751 35.5026 32.7899C36.2212 33.2048 36.4674 34.1237 36.0525 34.8423C35.6376 35.5609 34.7187 35.8071 34.0001 35.3922C33.2815 34.9773 33.0353 34.0585 33.4502 33.3399Z" fill="#ED1C24"/>
<path d="M38.4974 35.4974C38.4974 34.6677 39.1701 33.9951 39.9998 33.9951C40.8296 33.9951 41.5023 34.6677 41.5023 35.4974C41.5023 36.3272 40.8296 36.9999 39.9998 36.9999C39.1701 36.9999 38.4974 36.3272 38.4974 35.4974Z" fill="#ED1C24"/>
<path d="M43.9474 34.8423C43.5325 34.1237 43.7787 33.2048 44.4973 32.7899C45.2159 32.375 46.1348 32.6212 46.5497 33.3399C46.9646 34.0584 46.7183 34.9773 45.9998 35.3922C45.2812 35.8071 44.3623 35.5609 43.9474 34.8423Z" fill="#ED1C24"/>
<path d="M48.3397 31.5499C47.6211 31.135 47.3749 30.2161 47.7898 29.4975C48.2047 28.7789 49.1236 28.5327 49.8421 28.9476C50.5608 29.3625 50.807 30.2814 50.3921 30.9999C49.9772 31.7186 49.0583 31.9648 48.3397 31.5499Z" fill="#ED1C24"/>
<path opacity="0.4" d="M50.4976 26.5024C49.6678 26.5024 48.9951 25.8297 48.9951 25C48.9951 24.1702 49.6678 23.4975 50.4976 23.4975C51.3273 23.4975 51.9999 24.1702 51.9999 25C51.9999 25.8297 51.3273 26.5024 50.4976 26.5024Z" fill="#ED1C24"/>
<path opacity="0.4" d="M49.8422 21.0523C49.1236 21.4672 48.2047 21.221 47.7898 20.5024C47.3749 19.7838 47.6211 18.8649 48.3398 18.45C49.0583 18.0352 49.9772 18.2814 50.3921 19C50.807 19.7186 50.5608 20.6375 49.8422 21.0523Z" fill="#ED1C24"/>
<path opacity="0.4" d="M46.5497 16.6601C46.1348 17.3787 45.2159 17.6248 44.4973 17.21C43.7787 16.7951 43.5325 15.8762 43.9474 15.1576C44.3623 14.439 45.2812 14.1928 45.9998 14.6077C46.7184 15.0226 46.9646 15.9415 46.5497 16.6601Z" fill="#ED1C24"/>
<path d="M36.2056 21.0745C36.9242 21.4893 37.1704 22.4082 36.7555 23.1268C36.3406 23.8454 35.4217 24.0916 34.7032 23.6767C33.9845 23.2619 33.7383 22.343 34.1532 21.6244C34.5681 20.9058 35.487 20.6596 36.2056 21.0745Z" fill="#ED1C24"/>
<path d="M34.7031 26.3232C35.4217 25.9083 36.3406 26.1545 36.7555 26.8731C37.1704 27.5917 36.9241 28.5106 36.2056 28.9255C35.487 29.3404 34.5681 29.0942 34.1532 28.3756C33.7383 27.657 33.9845 26.7381 34.7031 26.3232Z" fill="#ED1C24"/>
<path d="M38.4974 30.2487C38.4974 29.419 39.1701 28.7464 39.9998 28.7464C40.8296 28.7464 41.5023 29.419 41.5023 30.2487C41.5023 31.0785 40.8296 31.7512 39.9998 31.7512C39.1701 31.7512 38.4974 31.0785 38.4974 30.2487Z" fill="#ED1C24"/>
<path d="M43.7942 28.9255C43.0756 28.5106 42.8294 27.5917 43.2443 26.8731C43.6591 26.1545 44.578 25.9083 45.2966 26.3232C46.0152 26.738 46.2614 27.6569 45.8466 28.3756C45.4316 29.0942 44.5128 29.3403 43.7942 28.9255Z" fill="#ED1C24"/>
<path d="M45.2966 23.6767C44.578 24.0916 43.6592 23.8454 43.2442 23.1268C42.8294 22.4082 43.0756 21.4893 43.7942 21.0745C44.5128 20.6596 45.4317 20.9058 45.8466 21.6244C46.2614 22.343 46.0153 23.2619 45.2966 23.6767Z" fill="#ED1C24"/>
</g>
<defs>
<clipPath id="clip0_10_765">
<rect width="80" height="80" fill="white"/>
</clipPath>
</defs>
</svg>
