<svg width="80" height="80" viewBox="0 0 80 80" fill="none" xmlns="http://www.w3.org/2000/svg">
<g clip-path="url(#clip0_10_773)">
<path d="M76 1H4C2.34315 1 1 2.34315 1 4V76C1 77.6569 2.34315 79 4 79H76C77.6569 79 79 77.6569 79 76V4C79 2.34315 77.6569 1 76 1Z" stroke="#ED1C24" stroke-width="2"/>
<path d="M12.008 55.64C11.972 55.856 12.116 56 12.332 56H16.688C16.904 56 17.012 55.856 17.048 55.64L18.74 46.1C18.776 45.956 18.848 45.884 18.992 45.884H26.732C26.876 45.884 26.948 45.956 26.912 46.1L25.22 55.64C25.184 55.856 25.328 56 25.544 56H29.9C30.116 56 30.26 55.856 30.296 55.64L34.508 31.88C34.544 31.664 34.4 31.52 34.184 31.52H29.828C29.612 31.52 29.468 31.664 29.432 31.88L27.776 41.168C27.74 41.312 27.668 41.384 27.524 41.384H19.82C19.6966 41.384 19.6261 41.3311 19.6311 41.2253L21.26 31.88C21.296 31.664 21.188 31.52 20.972 31.52H16.616C16.4 31.52 16.256 31.664 16.22 31.88L12.008 55.64ZM52.76 55.676C52.976 55.532 53.012 55.316 52.904 55.136L51.5 52.976C52.04 52.364 52.472 51.608 52.904 50.78C54.164 48.188 55.352 40.808 55.352 38.612C55.352 33.68 52.22 31.124 47.612 31.124C43.292 31.124 40.052 32.816 38.108 36.74C36.848 39.332 35.66 46.712 35.66 48.908C35.66 53.84 38.792 56.396 43.4 56.396C45.02 56.396 46.496 56.144 47.792 55.676L49.196 57.8C49.304 57.98 49.556 57.98 49.736 57.836L52.76 55.676ZM44.084 51.896C41.96 51.896 40.772 50.564 40.772 48.44C40.772 46.676 41.888 40.196 42.716 38.504C43.544 36.74 44.948 35.624 46.964 35.624C49.052 35.624 50.24 36.956 50.24 39.08C50.24 40.664 49.376 46.1 48.548 48.404L47.684 47.036C47.54 46.82 47.36 46.82 47.144 46.964L44.12 49.124C43.904 49.268 43.832 49.448 43.94 49.628L45.308 51.752C44.912 51.86 44.516 51.896 44.084 51.896Z" fill="#ED1C24"/>
<path d="M62 37C62 29.8203 56.1797 24 49 24" stroke="#ED1C24" stroke-width="2" stroke-linecap="round"/>
<path d="M70 37C70 25.402 60.598 16 49 16" stroke="#ED1C24" stroke-width="2" stroke-linecap="round"/>
</g>
<defs>
<clipPath id="clip0_10_773">
<rect width="80" height="80" fill="white"/>
</clipPath>
</defs>
</svg>
