<svg width="78" height="80" viewBox="0 0 78 80" fill="none" xmlns="http://www.w3.org/2000/svg">
<g clip-path="url(#clip0_10_479)">
<path opacity="0.4" d="M41.1283 17C41.1283 18.1755 40.1754 19.1283 38.9999 19.1283C37.8244 19.1283 36.8715 18.1755 36.8715 17C36.8715 15.8245 37.8244 14.8715 38.9999 14.8715C40.1754 14.8715 41.1283 15.8245 41.1283 17Z" fill="#ED1C24"/>
<path opacity="0.4" d="M41.1283 2.12848C41.1283 3.30397 40.1754 4.25693 38.9999 4.25693C37.8244 4.25693 36.8715 3.30397 36.8715 2.12848C36.8715 0.952993 37.8244 3.05176e-05 38.9999 3.05176e-05C40.1754 3.05176e-05 41.1283 0.952993 41.1283 2.12848Z" fill="#ED1C24"/>
<path d="M41.1283 9.56418C41.1283 10.7397 40.1754 11.6926 38.9999 11.6926C37.8244 11.6926 36.8715 10.7397 36.8715 9.56418C36.8715 8.38869 37.8244 7.43573 38.9999 7.43573C40.1754 7.43573 41.1283 8.38869 41.1283 9.56418Z" fill="#ED1C24"/>
<path d="M33.4073 3.05665C33.995 4.0747 33.6463 5.3764 32.6282 5.96421C31.6102 6.55188 30.3084 6.20315 29.7207 5.18509C29.1329 4.16711 29.4818 2.86534 30.4997 2.2776C31.5178 1.68986 32.8195 2.03866 33.4073 3.05665Z" fill="#ED1C24"/>
<path d="M27.185 7.7209C28.2031 8.30864 28.5518 9.61041 27.9641 10.6285C27.3763 11.6464 26.0745 11.9952 25.0566 11.4075C24.0385 10.8198 23.6897 9.51799 24.2774 8.50001C24.8653 7.48196 26.167 7.13315 27.185 7.7209Z" fill="#ED1C24"/>
<path d="M24.1284 14.8715C25.3039 14.8715 26.2568 15.8245 26.2568 17C26.2568 18.1755 25.3039 19.1283 24.1284 19.1283C22.9529 19.1283 22 18.1755 22 17C22 15.8245 22.9529 14.8715 24.1284 14.8715Z" fill="#ED1C24"/>
<path d="M25.0565 22.5925C26.0746 22.0047 27.3763 22.3535 27.9641 23.3715C28.5518 24.3896 28.203 25.6913 27.185 26.2791C26.167 26.8668 24.8652 26.5179 24.2775 25.5C23.6897 24.482 24.0385 23.1802 25.0565 22.5925Z" fill="#ED1C24"/>
<path d="M29.7211 28.8148C30.3088 27.7967 31.6106 27.448 32.6286 28.0357C33.6466 28.6235 33.9954 29.9252 33.4077 30.9432C32.8199 31.9612 31.5181 32.3101 30.5001 31.7223C29.4821 31.1345 29.1333 29.8328 29.7211 28.8148Z" fill="#ED1C24"/>
<path d="M36.8715 31.8714C36.8715 30.6959 37.8244 29.743 38.9998 29.743C40.1754 29.743 41.1283 30.6959 41.1283 31.8714C41.1283 33.0469 40.1754 33.9998 38.9998 33.9998C37.8244 33.9998 36.8715 33.0469 36.8715 31.8714Z" fill="#ED1C24"/>
<path d="M44.5921 30.9432C44.0044 29.9252 44.3531 28.6235 45.3711 28.0357C46.3892 27.4479 47.691 27.7967 48.2787 28.8148C48.8665 29.8328 48.5176 31.1345 47.4997 31.7223C46.4816 32.31 45.1798 31.9612 44.5921 30.9432Z" fill="#ED1C24"/>
<path d="M50.8146 26.2791C49.7966 25.6913 49.4478 24.3895 50.0356 23.3715C50.6233 22.3535 51.9251 22.0047 52.9431 22.5925C53.9611 23.1803 54.3099 24.482 53.7222 25.4999C53.1344 26.518 51.8327 26.8668 50.8146 26.2791Z" fill="#ED1C24"/>
<path opacity="0.4" d="M53.8716 19.1283C52.6961 19.1283 51.7431 18.1755 51.7431 17C51.7431 15.8244 52.6961 14.8715 53.8716 14.8715C55.047 14.8715 55.9999 15.8244 55.9999 17C55.9999 18.1755 55.047 19.1283 53.8716 19.1283Z" fill="#ED1C24"/>
<path opacity="0.4" d="M52.9431 11.4075C51.9251 11.9952 50.6234 11.6464 50.0356 10.6285C49.4478 9.61041 49.7966 8.30864 50.8147 7.7209C51.8327 7.13315 53.1344 7.48196 53.7222 8.50001C54.3099 9.51799 53.9612 10.8198 52.9431 11.4075Z" fill="#ED1C24"/>
<path opacity="0.4" d="M48.2787 5.18509C47.6909 6.20315 46.3892 6.55188 45.3711 5.96421C44.3531 5.3764 44.0043 4.0747 44.5921 3.05665C45.1798 2.03866 46.4816 1.68986 47.4996 2.2776C48.5176 2.86534 48.8664 4.16711 48.2787 5.18509Z" fill="#ED1C24"/>
<path d="M33.6246 11.4388C34.6426 12.0266 34.9914 13.3283 34.4037 14.3463C33.8159 15.3644 32.5142 15.7131 31.4962 15.1254C30.4781 14.5376 30.1293 13.2359 30.7171 12.2179C31.3049 11.1998 32.6066 10.8511 33.6246 11.4388Z" fill="#ED1C24"/>
<path d="M31.4961 18.8745C32.5142 18.2868 33.8159 18.6355 34.4037 19.6536C34.9915 20.6716 34.6426 21.9734 33.6246 22.5611C32.6066 23.1489 31.3048 22.8001 30.7171 21.7821C30.1294 20.7641 30.4781 19.4623 31.4961 18.8745Z" fill="#ED1C24"/>
<path d="M36.8715 24.4357C36.8715 23.2602 37.8244 22.3073 38.9998 22.3073C40.1754 22.3073 41.1283 23.2602 41.1283 24.4357C41.1283 25.6112 40.1754 26.5642 38.9998 26.5642C37.8244 26.5642 36.8715 25.6112 36.8715 24.4357Z" fill="#ED1C24"/>
<path d="M44.375 22.5611C43.3571 21.9734 43.0082 20.6716 43.596 19.6535C44.1837 18.6356 45.4855 18.2868 46.5035 18.8745C47.5215 19.4622 47.8703 20.764 47.2826 21.7821C46.6948 22.8001 45.3931 23.1488 44.375 22.5611Z" fill="#ED1C24"/>
<path d="M46.5035 15.1254C45.4855 15.7131 44.1838 15.3644 43.596 14.3463C43.0082 13.3283 43.3571 12.0266 44.3751 11.4388C45.3931 10.8511 46.6948 11.1998 47.2826 12.2179C47.8703 13.2359 47.5216 14.5376 46.5035 15.1254Z" fill="#ED1C24"/>
<path d="M12 66C15.6819 66 18.6666 63.0152 18.6666 59.3333C18.6666 55.6514 15.6819 52.6667 12 52.6667C8.31808 52.6667 5.33331 55.6514 5.33331 59.3333C5.33331 63.0152 8.31808 66 12 66Z" stroke="#ED1C24" stroke-width="2"/>
<path fill-rule="evenodd" clip-rule="evenodd" d="M22.6666 79.3333C21.3333 73.1111 17.7778 70 12 70C6.2222 70 2.66665 73.1111 1.33331 79.3333H22.6666Z" stroke="#ED1C24" stroke-width="2" stroke-linecap="round" stroke-linejoin="round"/>
<path d="M39 66C42.6819 66 45.6666 63.0152 45.6666 59.3333C45.6666 55.6514 42.6819 52.6667 39 52.6667C35.3181 52.6667 32.3333 55.6514 32.3333 59.3333C32.3333 63.0152 35.3181 66 39 66Z" stroke="#ED1C24" stroke-width="2"/>
<path fill-rule="evenodd" clip-rule="evenodd" d="M49.6666 79.3333C48.3333 73.1111 44.7778 70 39 70C33.2222 70 29.6666 73.1111 28.3333 79.3333H49.6666Z" stroke="#ED1C24" stroke-width="2" stroke-linecap="round" stroke-linejoin="round"/>
<path d="M66 66C69.6819 66 72.6666 63.0152 72.6666 59.3333C72.6666 55.6514 69.6819 52.6667 66 52.6667C62.3181 52.6667 59.3333 55.6514 59.3333 59.3333C59.3333 63.0152 62.3181 66 66 66Z" stroke="#ED1C24" stroke-width="2"/>
<path fill-rule="evenodd" clip-rule="evenodd" d="M76.6666 79.3333C75.3333 73.1111 71.7778 70 66 70C60.2222 70 56.6666 73.1111 55.3333 79.3333H76.6666Z" stroke="#ED1C24" stroke-width="2" stroke-linecap="round" stroke-linejoin="round"/>
<path d="M39 48V38" stroke="#ED1C24" stroke-width="2" stroke-linecap="round" stroke-linejoin="round" stroke-dasharray="1 4"/>
<path d="M17 47L27 36M61 47L51 36" stroke="#ED1C24" stroke-width="2" stroke-linecap="round" stroke-linejoin="round" stroke-dasharray="1 4"/>
</g>
<defs>
<clipPath id="clip0_10_479">
<rect width="78" height="80" fill="white"/>
</clipPath>
</defs>
</svg>
