<svg width="80" height="80" viewBox="0 0 80 80" fill="none" xmlns="http://www.w3.org/2000/svg">
<g clip-path="url(#clip0_10_832)">
<path opacity="0.4" d="M35.1283 52C35.1283 53.1755 34.1754 54.1283 32.9999 54.1283C31.8244 54.1283 30.8715 53.1755 30.8715 52C30.8715 50.8245 31.8244 49.8715 32.9999 49.8715C34.1754 49.8715 35.1283 50.8245 35.1283 52Z" fill="#ED1C24"/>
<path opacity="0.4" d="M35.1283 37.1285C35.1283 38.304 34.1754 39.2569 32.9999 39.2569C31.8244 39.2569 30.8715 38.304 30.8715 37.1285C30.8715 35.953 31.8244 35 32.9999 35C34.1754 35 35.1283 35.953 35.1283 37.1285Z" fill="#ED1C24"/>
<path d="M35.1283 44.5642C35.1283 45.7397 34.1754 46.6926 32.9999 46.6926C31.8244 46.6926 30.8715 45.7397 30.8715 44.5642C30.8715 43.3887 31.8244 42.4357 32.9999 42.4357C34.1754 42.4357 35.1283 43.3887 35.1283 44.5642Z" fill="#ED1C24"/>
<path d="M27.4073 38.0566C27.995 39.0747 27.6463 40.3764 26.6282 40.9642C25.6102 41.5519 24.3084 41.2031 23.7207 40.1851C23.1329 39.1671 23.4818 37.8653 24.4997 37.2776C25.5178 36.6898 26.8195 37.0386 27.4073 38.0566Z" fill="#ED1C24"/>
<path d="M21.185 42.7209C22.2031 43.3087 22.5518 44.6104 21.9641 45.6285C21.3763 46.6465 20.0745 46.9953 19.0566 46.4075C18.0385 45.8198 17.6897 44.518 18.2774 43.5C18.8653 42.482 20.167 42.1332 21.185 42.7209Z" fill="#ED1C24"/>
<path d="M18.1284 49.8715C19.3039 49.8715 20.2568 50.8245 20.2568 52C20.2568 53.1755 19.3039 54.1283 18.1284 54.1283C16.9529 54.1283 16 53.1755 16 52C16 50.8245 16.9529 49.8715 18.1284 49.8715Z" fill="#ED1C24"/>
<path d="M19.0565 57.5925C20.0746 57.0047 21.3763 57.3534 21.9641 58.3715C22.5518 59.3895 22.203 60.6912 21.185 61.2791C20.167 61.8668 18.8652 61.5179 18.2775 60.4999C17.6897 59.482 18.0385 58.1802 19.0565 57.5925Z" fill="#ED1C24"/>
<path d="M23.7211 63.8148C24.3088 62.7967 25.6106 62.448 26.6286 63.0357C27.6466 63.6235 27.9954 64.9252 27.4077 65.9432C26.8199 66.9612 25.5181 67.3101 24.5001 66.7223C23.4821 66.1345 23.1333 64.8328 23.7211 63.8148Z" fill="#ED1C24"/>
<path d="M30.8715 66.8714C30.8715 65.696 31.8244 64.743 32.9998 64.743C34.1754 64.743 35.1283 65.696 35.1283 66.8714C35.1283 68.0469 34.1754 68.9998 32.9998 68.9998C31.8244 68.9998 30.8715 68.0469 30.8715 66.8714Z" fill="#ED1C24"/>
<path d="M38.5921 65.9432C38.0044 64.9252 38.3531 63.6235 39.3711 63.0357C40.3892 62.4479 41.691 62.7967 42.2787 63.8148C42.8665 64.8328 42.5176 66.1345 41.4997 66.7223C40.4816 67.31 39.1798 66.9612 38.5921 65.9432Z" fill="#ED1C24"/>
<path d="M44.8146 61.279C43.7966 60.6913 43.4478 59.3895 44.0356 58.3715C44.6233 57.3535 45.9251 57.0047 46.9431 57.5924C47.9611 58.1802 48.3099 59.4819 47.7222 60.4999C47.1344 61.518 45.8327 61.8668 44.8146 61.279Z" fill="#ED1C24"/>
<path opacity="0.4" d="M47.8716 54.1283C46.6961 54.1283 45.7431 53.1755 45.7431 52C45.7431 50.8244 46.6961 49.8715 47.8716 49.8715C49.047 49.8715 49.9999 50.8244 49.9999 52C49.9999 53.1755 49.047 54.1283 47.8716 54.1283Z" fill="#ED1C24"/>
<path opacity="0.4" d="M46.9431 46.4075C45.9251 46.9952 44.6234 46.6464 44.0356 45.6284C43.4478 44.6104 43.7966 43.3086 44.8147 42.7209C45.8327 42.1331 47.1344 42.4819 47.7222 43.5C48.3099 44.518 47.9612 45.8197 46.9431 46.4075Z" fill="#ED1C24"/>
<path opacity="0.4" d="M42.2787 40.1851C41.6909 41.2031 40.3892 41.5519 39.3711 40.9642C38.3531 40.3764 38.0043 39.0747 38.5921 38.0566C39.1798 37.0386 40.4816 36.6898 41.4996 37.2776C42.5176 37.8653 42.8664 39.1671 42.2787 40.1851Z" fill="#ED1C24"/>
<path d="M27.6246 46.4388C28.6426 47.0266 28.9914 48.3283 28.4037 49.3463C27.8159 50.3644 26.5142 50.7131 25.4962 50.1254C24.4781 49.5376 24.1293 48.2359 24.7171 47.2179C25.3049 46.1998 26.6066 45.8511 27.6246 46.4388Z" fill="#ED1C24"/>
<path d="M25.4961 53.8745C26.5142 53.2868 27.8159 53.6355 28.4037 54.6536C28.9915 55.6716 28.6426 56.9734 27.6246 57.5611C26.6066 58.1489 25.3048 57.8001 24.7171 56.7821C24.1294 55.7641 24.4781 54.4623 25.4961 53.8745Z" fill="#ED1C24"/>
<path d="M30.8715 59.4357C30.8715 58.2602 31.8244 57.3073 32.9998 57.3073C34.1754 57.3073 35.1283 58.2602 35.1283 59.4357C35.1283 60.6112 34.1754 61.5642 32.9998 61.5642C31.8244 61.5642 30.8715 60.6112 30.8715 59.4357Z" fill="#ED1C24"/>
<path d="M38.375 57.5611C37.3571 56.9733 37.0082 55.6716 37.596 54.6535C38.1837 53.6355 39.4855 53.2867 40.5035 53.8745C41.5215 54.4622 41.8703 55.764 41.2826 56.782C40.6948 57.8001 39.3931 58.1488 38.375 57.5611Z" fill="#ED1C24"/>
<path d="M40.5035 50.1254C39.4855 50.7131 38.1838 50.3644 37.596 49.3463C37.0082 48.3283 37.3571 47.0266 38.3751 46.4388C39.3931 45.8511 40.6948 46.1998 41.2826 47.2179C41.8703 48.2359 41.5216 49.5376 40.5035 50.1254Z" fill="#ED1C24"/>
<path fill-rule="evenodd" clip-rule="evenodd" d="M2 24H52V26H2V24Z" fill="#ED1C24"/>
<path d="M18 18V8C18 7.44772 17.5523 7 17 7C16.4477 7 16 7.44772 16 8V18C16 18.5523 16.4477 19 17 19C17.5523 19 18 18.5523 18 18Z" fill="#ED1C24"/>
<path d="M65 15V8C65 7.44772 64.5523 7 64 7C63.4477 7 63 7.44772 63 8V15C63 15.5523 63.4477 16 64 16C64.5523 16 65 15.5523 65 15Z" fill="#ED1C24"/>
<path d="M63 15C63 15.5523 63.4477 16 64 16C64.5523 16 65 15.5523 65 15H63ZM63 8V15H65V8H63Z" fill="#ED1C24"/>
<path d="M69.3598 20.7682C69.7841 21.1218 70.4147 21.0645 70.7682 20.6402C71.1218 20.2159 71.0645 19.5853 70.6402 19.2318L69.3598 20.7682ZM63.3598 15.7682L69.3598 20.7682L70.6402 19.2318L64.6402 14.2318L63.3598 15.7682Z" fill="#ED1C24"/>
<path d="M67 31V76C67 77.6569 65.6569 79 64 79H4C2.34315 79 1 77.6569 1 76V16C1 14.3431 2.34315 13 4 13H49" stroke="#ED1C24" stroke-width="2"/>
<path d="M64 31C72.2843 31 79 24.2843 79 16C79 7.71573 72.2843 1 64 1C55.7157 1 49 7.71573 49 16C49 24.2843 55.7157 31 64 31Z" stroke="#ED1C24" stroke-width="2"/>
</g>
<defs>
<clipPath id="clip0_10_832">
<rect width="80" height="80" fill="white"/>
</clipPath>
</defs>
</svg>
