<svg width="80" height="80" viewBox="0 0 80 80" fill="none" xmlns="http://www.w3.org/2000/svg">
<g clip-path="url(#clip0_10_880)">
<path d="M76 1H4C2.34315 1 1 2.34315 1 4V76C1 77.6569 2.34315 79 4 79H76C77.6569 79 79 77.6569 79 76V4C79 2.34315 77.6569 1 76 1Z" stroke="#ED1C24" stroke-width="2"/>
<path d="M65.001 64.181C60.912 64.181 59.292 59.769 57.864 55.874C57.229 54.145 55.909 50.545 54.992 50.545C54.076 50.545 52.755 54.145 52.12 55.874C50.693 59.769 49.073 64.181 44.985 64.181C40.896 64.181 39.278 59.767 37.851 55.874C37.216 54.143 35.895 50.545 34.983 50.545C34.073 50.545 32.755 54.143 32.12 55.872C30.695 59.768 29.075 64.182 24.991 64.182C20.905 64.182 19.287 59.768 17.862 55.872C17.228 54.142 15.91 50.545 15 50.545V46C19.086 46 20.704 50.415 22.129 54.31C22.764 56.039 24.082 59.637 24.992 59.637C25.902 59.637 27.22 56.039 27.855 54.307C29.28 50.414 30.898 46 34.984 46C39.072 46 40.691 50.415 42.117 54.307C42.752 56.038 44.072 59.637 44.985 59.637C45.899 59.637 47.219 56.039 47.854 54.31C49.284 50.415 50.902 46 54.992 46C59.083 46 60.701 50.415 62.13 54.31C62.765 56.039 64.086 59.637 65.001 59.637V64.181Z" fill="#ED1C24"/>
<path opacity="0.4" d="M41.5023 27C41.5023 27.8297 40.8296 28.5024 39.9999 28.5024C39.1701 28.5024 38.4974 27.8297 38.4974 27C38.4974 26.1702 39.1701 25.4975 39.9999 25.4975C40.8296 25.4975 41.5023 26.1702 41.5023 27Z" fill="#ED1C24"/>
<path opacity="0.4" d="M41.5023 16.5024C41.5023 17.3322 40.8296 18.0049 39.9999 18.0049C39.1701 18.0049 38.4974 17.3322 38.4974 16.5024C38.4974 15.6727 39.1701 15 39.9999 15C40.8296 15 41.5023 15.6727 41.5023 16.5024Z" fill="#ED1C24"/>
<path d="M41.5023 21.7512C41.5023 22.5809 40.8296 23.2536 39.9999 23.2536C39.1701 23.2536 38.4974 22.5809 38.4974 21.7512C38.4974 20.9214 39.1701 20.2488 39.9999 20.2488C40.8296 20.2488 41.5023 20.9214 41.5023 21.7512Z" fill="#ED1C24"/>
<path d="M36.0522 17.1576C36.4671 17.8762 36.221 18.7951 35.5023 19.21C34.7837 19.6248 33.8648 19.3787 33.4499 18.6601C33.0351 17.9415 33.2813 17.0226 33.9998 16.6077C34.7185 16.1928 35.6374 16.439 36.0522 17.1576Z" fill="#ED1C24"/>
<path d="M31.6601 20.4501C32.3787 20.8649 32.6248 21.7838 32.21 22.5024C31.7951 23.221 30.8762 23.4672 30.1576 23.0524C29.439 22.6375 29.1928 21.7186 29.6077 21C30.0226 20.2814 30.9414 20.0352 31.6601 20.4501Z" fill="#ED1C24"/>
<path d="M29.5024 25.4975C30.3321 25.4975 31.0048 26.1702 31.0048 27C31.0048 27.8297 30.3321 28.5024 29.5024 28.5024C28.6726 28.5024 28 27.8297 28 27C28 26.1702 28.6726 25.4975 29.5024 25.4975Z" fill="#ED1C24"/>
<path d="M30.1576 30.9476C30.8762 30.5327 31.7951 30.7789 32.21 31.4975C32.6249 32.2161 32.3786 33.135 31.66 33.5499C30.9414 33.9648 30.0225 33.7185 29.6077 33C29.1928 32.2814 29.439 31.3625 30.1576 30.9476Z" fill="#ED1C24"/>
<path d="M33.4502 35.3399C33.8651 34.6212 34.784 34.3751 35.5026 34.7899C36.2212 35.2048 36.4674 36.1237 36.0525 36.8423C35.6376 37.5609 34.7187 37.8071 34.0001 37.3922C33.2815 36.9773 33.0353 36.0585 33.4502 35.3399Z" fill="#ED1C24"/>
<path d="M38.4974 37.4974C38.4974 36.6677 39.1701 35.9951 39.9998 35.9951C40.8296 35.9951 41.5023 36.6677 41.5023 37.4974C41.5023 38.3272 40.8296 38.9999 39.9998 38.9999C39.1701 38.9999 38.4974 38.3272 38.4974 37.4974Z" fill="#ED1C24"/>
<path d="M43.9474 36.8423C43.5325 36.1237 43.7787 35.2048 44.4973 34.7899C45.2159 34.375 46.1348 34.6212 46.5497 35.3399C46.9646 36.0584 46.7183 36.9773 45.9998 37.3922C45.2812 37.8071 44.3623 37.5609 43.9474 36.8423Z" fill="#ED1C24"/>
<path d="M48.3397 33.5499C47.6211 33.135 47.3749 32.2161 47.7898 31.4975C48.2047 30.7789 49.1236 30.5327 49.8421 30.9476C50.5608 31.3625 50.807 32.2814 50.3921 32.9999C49.9772 33.7186 49.0583 33.9648 48.3397 33.5499Z" fill="#ED1C24"/>
<path opacity="0.4" d="M50.4976 28.5024C49.6678 28.5024 48.9951 27.8297 48.9951 27C48.9951 26.1702 49.6678 25.4975 50.4976 25.4975C51.3273 25.4975 51.9999 26.1702 51.9999 27C51.9999 27.8297 51.3273 28.5024 50.4976 28.5024Z" fill="#ED1C24"/>
<path opacity="0.4" d="M49.8422 23.0523C49.1236 23.4672 48.2047 23.221 47.7898 22.5024C47.3749 21.7838 47.6211 20.8649 48.3398 20.45C49.0583 20.0352 49.9772 20.2814 50.3921 21C50.807 21.7186 50.5608 22.6375 49.8422 23.0523Z" fill="#ED1C24"/>
<path opacity="0.4" d="M46.5497 18.6601C46.1348 19.3787 45.2159 19.6248 44.4973 19.21C43.7787 18.7951 43.5325 17.8762 43.9474 17.1576C44.3623 16.439 45.2812 16.1928 45.9998 16.6077C46.7184 17.0226 46.9646 17.9415 46.5497 18.6601Z" fill="#ED1C24"/>
<path d="M36.2056 23.0745C36.9242 23.4893 37.1704 24.4082 36.7555 25.1268C36.3406 25.8454 35.4217 26.0916 34.7032 25.6767C33.9845 25.2619 33.7383 24.343 34.1532 23.6244C34.5681 22.9058 35.487 22.6596 36.2056 23.0745Z" fill="#ED1C24"/>
<path d="M34.7031 28.3232C35.4217 27.9083 36.3406 28.1545 36.7555 28.8731C37.1704 29.5917 36.9241 30.5106 36.2056 30.9255C35.487 31.3404 34.5681 31.0942 34.1532 30.3756C33.7383 29.657 33.9845 28.7381 34.7031 28.3232Z" fill="#ED1C24"/>
<path d="M38.4974 32.2487C38.4974 31.419 39.1701 30.7464 39.9998 30.7464C40.8296 30.7464 41.5023 31.419 41.5023 32.2487C41.5023 33.0785 40.8296 33.7512 39.9998 33.7512C39.1701 33.7512 38.4974 33.0785 38.4974 32.2487Z" fill="#ED1C24"/>
<path d="M43.7942 30.9255C43.0756 30.5106 42.8294 29.5917 43.2443 28.8731C43.6591 28.1545 44.578 27.9083 45.2966 28.3232C46.0152 28.738 46.2614 29.6569 45.8466 30.3756C45.4316 31.0942 44.5128 31.3403 43.7942 30.9255Z" fill="#ED1C24"/>
<path d="M45.2966 25.6767C44.578 26.0916 43.6592 25.8454 43.2442 25.1268C42.8294 24.4082 43.0756 23.4893 43.7942 23.0745C44.5128 22.6596 45.4317 22.9058 45.8466 23.6244C46.2614 24.343 46.0153 25.2619 45.2966 25.6767Z" fill="#ED1C24"/>
</g>
<defs>
<clipPath id="clip0_10_880">
<rect width="80" height="80" fill="white"/>
</clipPath>
</defs>
</svg>
